<?xml version="1.0" encoding="utf-8"?>
<!-- Generator: Adobe Illustrator 27.0.0, SVG Export Plug-In . SVG Version: 6.00 Build 0)  -->
<svg version="1.1" id="Layer_1" xmlns="http://www.w3.org/2000/svg" xmlns:xlink="http://www.w3.org/1999/xlink" x="0px" y="0px"
	 viewBox="0 0 24 24" style="enable-background:new 0 0 24 24;" xml:space="preserve">
<style type="text/css">
	.st0{fill:#212121;}
	.st1{fill:#FFFFFF;}
</style>
<path class="st0" d="M18.8,6.7c-0.4-0.4-0.9-0.9-1.3-1.3c-0.1-0.1-0.2-0.3-0.2-0.4c0-0.2,0.1-0.4,0.3-0.6c0.2-0.1,0.5-0.1,0.7,0
	c0.1,0,0.1,0.1,0.2,0.1C19.3,5.3,20,6,20.8,6.8c0.3,0.3,0.3,0.7,0,1c-0.8,0.8-1.6,1.5-2.3,2.3c-0.1,0.1-0.3,0.2-0.5,0.2
	c-0.3,0-0.4-0.1-0.5-0.4c-0.1-0.2-0.1-0.5,0.1-0.7C18,8.8,18.4,8.4,18.8,8c0,0,0.1-0.1,0.2-0.1c0,0,0,0-0.1-0.1c-0.1,0-0.1,0-0.2,0
	c-0.7,0-1.4,0-2.2,0c-0.6,0-1.1,0.2-1.6,0.7c-2.2,2.5-4.4,5-6.5,7.5c-0.7,0.8-1.5,1.2-2.5,1.2c-0.7,0-1.4,0-2.2,0
	c-0.5,0-0.8-0.4-0.6-0.8C3.2,16.1,3.4,16,3.7,16c0.7,0,1.4,0,2.2,0c0.7,0,1.2-0.2,1.7-0.8c2.2-2.5,4.4-5,6.6-7.5
	c0.6-0.7,1.4-1.1,2.4-1.1C17.3,6.6,18.1,6.6,18.8,6.7C18.7,6.7,18.7,6.7,18.8,6.7L18.8,6.7z"/>
<path class="st0" d="M18.8,17.3c-0.8,0-1.5,0-2.3,0c-1.1,0-1.9-0.4-2.6-1.2c-0.6-0.7-1.2-1.4-1.8-2.1L12,13.9
	c0.3-0.3,0.5-0.6,0.8-0.9c0.3,0.4,0.6,0.7,0.9,1.1c0.4,0.5,0.8,0.9,1.2,1.4c0.4,0.4,0.8,0.7,1.4,0.7c0.8,0,1.6,0,2.4,0
	c0,0,0,0,0.1,0c-0.1-0.1-0.1-0.1-0.2-0.2c-0.4-0.4-0.8-0.8-1.2-1.2c-0.2-0.2-0.2-0.5-0.1-0.7s0.4-0.4,0.6-0.3c0.1,0,0.2,0.1,0.3,0.2
	c0.8,0.8,1.6,1.6,2.4,2.4c0.3,0.3,0.3,0.6,0,0.9c-0.8,0.8-1.6,1.6-2.4,2.4c-0.3,0.3-0.6,0.3-0.9,0c-0.2-0.2-0.2-0.6,0-0.9
	c0.4-0.4,0.8-0.8,1.2-1.2C18.7,17.5,18.8,17.4,18.8,17.3z"/>
<path class="st0" d="M10.4,10.2c-0.3,0.3-0.5,0.6-0.8,0.9c-0.1-0.1-0.2-0.3-0.3-0.4C8.6,10,8,9.3,7.4,8.6C7,8.2,6.5,7.9,5.9,7.9
	c-0.8,0-1.5,0-2.3,0C3.2,7.9,2.9,7.5,3,7.1c0.1-0.2,0.3-0.4,0.6-0.4c0.9,0,1.8,0,2.7,0C7,6.7,7.7,7,8.2,7.6
	C8.9,8.5,9.6,9.3,10.4,10.2z"/>
<path class="st1" d="M21.8,21.8c-6.5,0-13.1,0-19.6,0c0-6.5,0-13.1,0-19.6c6.5,0,13.1,0,19.6,0C21.8,8.7,21.8,15.3,21.8,21.8z
	 M18.8,6.7L18.8,6.7c-0.1,0-0.2,0-0.2,0c-0.7,0-1.5,0-2.2,0c-0.9,0-1.7,0.4-2.4,1.1c-2.2,2.5-4.4,5-6.6,7.5c-0.4,0.5-1,0.8-1.7,0.8
	s-1.4,0-2.2,0c-0.3,0-0.5,0.2-0.6,0.4c-0.1,0.4,0.2,0.8,0.6,0.8c0.7,0,1.4,0,2.2,0c1,0,1.9-0.4,2.5-1.2c2.2-2.5,4.4-5,6.5-7.5
	c0.4-0.5,0.9-0.7,1.6-0.7c0.7,0,1.4,0,2.2,0c0.1,0,0.1,0,0.2,0c0,0,0,0,0.1,0.1c-0.1,0-0.1,0.1-0.2,0.1c-0.4,0.4-0.8,0.8-1.2,1.2
	c-0.2,0.2-0.2,0.4-0.1,0.7c0.1,0.2,0.3,0.4,0.5,0.4s0.4-0.1,0.5-0.2c0.8-0.8,1.5-1.5,2.3-2.3c0.3-0.3,0.3-0.7,0-1
	c-0.8-0.8-1.5-1.5-2.3-2.3c0,0-0.1-0.1-0.2-0.1c-0.2-0.2-0.4-0.2-0.7,0c-0.2,0.1-0.3,0.3-0.3,0.6c0,0.2,0.1,0.3,0.2,0.4
	C17.9,5.8,18.4,6.2,18.8,6.7z M18.8,17.3c-0.1,0.1-0.1,0.1-0.2,0.2c-0.4,0.4-0.8,0.8-1.2,1.2c-0.3,0.3-0.3,0.6,0,0.9
	c0.2,0.2,0.6,0.2,0.9,0c0.8-0.8,1.6-1.6,2.4-2.4c0.3-0.3,0.3-0.6,0-0.9c-0.8-0.8-1.6-1.6-2.4-2.4c-0.1-0.1-0.2-0.2-0.3-0.2
	c-0.3-0.1-0.5,0.1-0.6,0.3s-0.1,0.5,0.1,0.7c0.4,0.4,0.8,0.8,1.2,1.2c0,0,0.1,0.1,0.2,0.2c-0.1,0-0.1,0-0.1,0c-0.8,0-1.6,0-2.4,0
	c-0.6,0-1-0.2-1.4-0.7s-0.8-0.9-1.2-1.4c-0.3-0.4-0.6-0.7-0.9-1.1c-0.3,0.3-0.5,0.6-0.8,0.9l0.1,0.1c0.6,0.7,1.2,1.4,1.8,2.1
	c0.7,0.8,1.6,1.2,2.6,1.2C17.3,17.3,18.1,17.3,18.8,17.3z M10.4,10.2C9.6,9.3,8.9,8.5,8.2,7.6C7.7,7.1,7,6.8,6.3,6.7
	c-0.9,0-1.8,0-2.7,0C3.3,6.7,3.1,6.9,3,7.1C2.9,7.5,3.2,7.9,3.6,7.9c0.8,0,1.5,0,2.3,0c0.6,0,1.1,0.2,1.5,0.7C8,9.3,8.6,10,9.2,10.7
	c0.1,0.1,0.2,0.2,0.3,0.4C9.8,10.8,10.1,10.5,10.4,10.2z"/>
</svg>
