<?xml version="1.0" encoding="utf-8"?>
<!-- Generator: Adobe Illustrator 27.6.1, SVG Export Plug-In . SVG Version: 6.00 Build 0)  -->
<svg version="1.1" id="Layer_1" xmlns="http://www.w3.org/2000/svg" xmlns:xlink="http://www.w3.org/1999/xlink" x="0px" y="0px"
	 viewBox="0 0 24 24" style="enable-background:new 0 0 24 24;" xml:space="preserve">
<style type="text/css">
	.st0{fill:none;}
	.st1{fill:#FFFFFF;}
</style>
<g>
	<path class="st0" d="M7.9,8.4C7.5,8.8,7,9,6.4,9H2.8C2.3,9,2,9.3,2,9.7v4.5C2,14.7,2.3,15,2.8,15h3.7c0.5,0,1.1,0.2,1.5,0.6
		l4.1,3.6V4.8L7.9,8.4L7.9,8.4z"/>
	<path class="st1" d="M18.6,6c-0.2-0.3-0.7-0.4-1-0.1c-0.3,0.2-0.4,0.7-0.2,1c2.2,3,2.2,7.1,0,10.1c-0.2,0.3-0.2,0.8,0.2,1
		c0.3,0.2,0.8,0.2,1-0.1C21.2,14.4,21.2,9.6,18.6,6z"/>
	<path class="st1" d="M16.7,8.7C16.7,8.7,16.7,8.7,16.7,8.7c-0.2-0.4-0.7-0.5-1-0.3c0,0,0,0,0,0c-0.4,0.2-0.5,0.7-0.3,1
		c0.9,1.6,0.9,3.6,0,5.2c-0.2,0.4-0.1,0.8,0.3,1c0.4,0.2,0.8,0.1,1-0.3C17.8,13.3,17.8,10.7,16.7,8.7z"/>
	<path class="st1" d="M12.3,3c-0.3,0-0.6,0.1-0.8,0.3l-4.5,4C6.8,7.4,6.6,7.5,6.4,7.5H2.8c-1.2,0-2.2,1-2.2,2.3v4.5
		c0,1.2,1,2.2,2.2,2.2h3.7c0.2,0,0.4,0.1,0.5,0.2l4.5,4c0.8,0.7,2.1,0.1,2.1-0.9V4.2C13.5,3.6,12.9,3,12.3,3z M12,19.2l-4.1-3.6
		C7.5,15.2,7,15,6.4,15H2.8C2.3,15,2,14.7,2,14.2V9.7C2,9.3,2.3,9,2.8,9h3.7C7,9,7.5,8.8,7.9,8.4h0L12,4.8V19.2z"/>
	<path class="st1" d="M20.8,3.9c-0.2-0.3-0.7-0.4-1-0.2c-0.3,0.2-0.4,0.7-0.2,1c3.1,4.2,3.1,10.1,0,14.3c-0.2,0.3-0.2,0.8,0.2,1
		c0.1,0.1,0.3,0.1,0.4,0.1c0.2,0,0.5-0.1,0.6-0.3C24.4,15.3,24.4,8.7,20.8,3.9z"/>
</g>
</svg>
